# xmcd
#
# Track frame offsets:
#	150
#	11834
#	27620
#	40693
#	61520
#	73145
#	88187
#	102710
#	117530
#	134859
#	149656
#
# Disc length: 2187 seconds
#
# Revision: 0
# Processed by: cddbd v1.5.2PL0 Copyright (c) Steve Scherf et al.
# Submitted via: audiograbber 1.83.01
#
DISCID=af08890b
DTITLE=Alisha Lynn - Even The Angels Knew
DYEAR=1900
DGENRE=Country
TTITLE0=That's all
TTITLE1=He won't hurt her
TTITLE2=His indecision is final
TTITLE3=Daddy's little angel
TTITLE4=You used to dance with me
TTITLE5=Dear Lord
TTITLE6=What about you
TTITLE7=There's no way
TTITLE8=Alone with you
TTITLE9=Stand by me
TTITLE10=Even the angels knew
EXTD=
EXTT0=
EXTT1=
EXTT2=
EXTT3=
EXTT4=
EXTT5=
EXTT6=
EXTT7=
EXTT8=
EXTT9=
EXTT10=
PLAYORDER=
